<svg xmlns="http://www.w3.org/2000/svg" viewBox="0 0 308.72 308.72"><defs><style>.cls-1{fill:#fff;}</style></defs><g id="Layer_2" data-name="Layer 2"><g id="Layer_1-2" data-name="Layer 1"><path class="cls-1" d="M248.14,81.72c4.25-4.4,5.14-8.83,3-14.82A15.85,15.85,0,0,0,247.56,61c-2-2-4.84-3.29-8.62-3.85-3.56-.54-7.92-.37-13.27,4.92-2.16,2.13-4.37,4.36-6.5,6.52L215,72.81A78.84,78.84,0,0,1,236,94.1Q242.12,87.94,248.14,81.72Z"/><path class="cls-1" d="M134.1,174.69c-1.37-1.37-2.73-2.82-4-4.31a64.05,64.05,0,0,1-5.17-6.92l-.36-.53-11,11c-6.42,6.44-7,15-1.34,21.39.22.24.45.49.68.72,5.9,5.9,15.26,5.56,21.77-.8,2.15-2.1,4.35-4.3,6.47-6.43l4.44-4.42A85.84,85.84,0,0,1,134.1,174.69Z"/><path class="cls-1" d="M304.34,117.75a92,92,0,0,1-7.71,9.54L210.1,213.82,204,220.07c-8.13,8.27-16.53,16.82-25.41,24.92-11.42,10.41-24.16,17.2-37.85,20.16s-28.14,2-42.8-2.77a81.69,81.69,0,0,1-32.71-19.62c-11.05-11-18.33-25.22-21.64-42.14-5.3-27,2-51.77,21.16-71.59C79.07,114.15,92.19,101,104.53,89L165.91,27.6c5-5,10.19-10.07,15.49-15a93.44,93.44,0,0,1,10.08-8.13A154.36,154.36,0,1,0,304.34,117.75Z"/><path class="cls-1" d="M160.89,126.08a34.68,34.68,0,0,0,8.63,14.27c11.89,11.6,32,11.88,43.85.23,15.8-15.54,31.6-31.09,47-47,8.88-9.17,11.11-20.46,6.75-32.48s-13.06-18.92-25.65-20.82c-10.89-1.63-20.08,2-27.79,9.65-4.76,4.7-9.4,9.51-14.17,14.2a3,3,0,0,1-2.45.8,82.24,82.24,0,0,0-39-4.09,4.19,4.19,0,0,1-.69-.08,5.48,5.48,0,0,1,.66-1C169.65,48.19,180.93,36.27,193,25.15c18.47-17.06,40.36-22,64.19-14.21,23.67,7.72,38.34,24.53,43.06,49,4.29,22.19-2.07,41.64-17.95,57.74q-23,23.31-46.41,46.19a60.76,60.76,0,0,1-39.77,17.42c-21.33,1.28-39.12-6.18-53.24-22.18-2.15-2.42-3.8-5.28-5.71-7.91a1.8,1.8,0,0,1,.22-2.78c6.62-6.51,13.15-13.11,19.76-19.62A30.49,30.49,0,0,1,160.89,126.08Z"/><path class="cls-1" d="M199.6,131.07A35,35,0,0,0,191.11,117a32,32,0,0,0-42.36-1.89c-1.48,1.22-2.89,2.54-4.25,3.89q-21.51,21.44-43,42.89c-12.84,12.87-13.66,31.59-2,44.72,12.32,13.93,33.29,14.32,47.11.83,4.85-4.73,9.57-9.6,14.44-14.31a3.22,3.22,0,0,1,2.67-.77,81,81,0,0,0,38,4,10.94,10.94,0,0,1,1.43,0,5.75,5.75,0,0,1-.62.92c-11.79,11.75-23.18,23.92-35.47,35.12-18.42,16.8-40.24,21.54-63.86,13.79S65,221.69,60.26,197.34c-4.2-21.46,1.45-40.68,16.7-56.47,15.74-16.3,31.72-32.4,48.13-48,28.9-27.5,76.84-21.22,97.83,12.38,1.08,1.73,1.07,2.71-.46,4.18-6.44,6.2-12.72,12.58-19.11,18.85A35.51,35.51,0,0,1,199.6,131.07Z"/></g></g></svg>