<svg xmlns="http://www.w3.org/2000/svg" viewBox="0 0 1983.5 308.72"><defs><style>.cls-1{fill:#face41;}.cls-2{fill:#f15a29;}.cls-3{fill:#2bb673;}.cls-4{fill:#231f20;}</style></defs><g id="Layer_2" data-name="Layer 2"><g id="Layer_1-2" data-name="Layer 1"><path class="cls-1" d="M248.14,81.72c4.25-4.4,5.14-8.83,3-14.82A15.85,15.85,0,0,0,247.56,61c-2-2-4.84-3.29-8.62-3.85-3.56-.54-7.92-.37-13.27,4.92-2.16,2.13-4.37,4.36-6.5,6.52L215,72.81A78.84,78.84,0,0,1,236,94.1Q242.12,87.94,248.14,81.72Z"/><path class="cls-2" d="M134.1,174.69c-1.37-1.37-2.73-2.82-4-4.31a64.05,64.05,0,0,1-5.17-6.92l-.36-.53-11,11c-6.42,6.44-7,15-1.34,21.39.22.24.45.49.68.72,5.9,5.9,15.26,5.56,21.77-.8,2.15-2.1,4.35-4.3,6.47-6.43l4.44-4.42A85.84,85.84,0,0,1,134.1,174.69Z"/><path class="cls-3" d="M304.34,117.75a92,92,0,0,1-7.71,9.54L210.1,213.82,204,220.07c-8.13,8.27-16.53,16.82-25.41,24.92-11.42,10.41-24.16,17.2-37.85,20.16s-28.14,2-42.8-2.77a81.69,81.69,0,0,1-32.71-19.62c-11.05-11-18.33-25.22-21.64-42.14-5.3-27,2-51.77,21.16-71.59C79.07,114.15,92.19,101,104.53,89L165.91,27.6c5-5,10.19-10.07,15.49-15a93.44,93.44,0,0,1,10.08-8.13A154.36,154.36,0,1,0,304.34,117.75Z"/><path class="cls-2" d="M160.89,126.08a34.68,34.68,0,0,0,8.63,14.27c11.89,11.6,32,11.88,43.85.23,15.8-15.54,31.6-31.09,47-47,8.88-9.17,11.11-20.46,6.75-32.48s-13.06-18.92-25.65-20.82c-10.89-1.63-20.08,2-27.79,9.65-4.76,4.7-9.4,9.51-14.17,14.2a3,3,0,0,1-2.45.8,82.24,82.24,0,0,0-39-4.09,4.19,4.19,0,0,1-.69-.08,5.48,5.48,0,0,1,.66-1C169.65,48.19,180.93,36.27,193,25.15c18.47-17.06,40.36-22,64.19-14.21,23.67,7.72,38.34,24.53,43.06,49,4.29,22.19-2.07,41.64-17.95,57.74q-23,23.31-46.41,46.19a60.76,60.76,0,0,1-39.77,17.42c-21.33,1.28-39.12-6.18-53.24-22.18-2.15-2.42-3.8-5.28-5.71-7.91a1.8,1.8,0,0,1,.22-2.78c6.62-6.51,13.15-13.11,19.76-19.62A30.49,30.49,0,0,1,160.89,126.08Z"/><path class="cls-1" d="M199.6,131.07A35,35,0,0,0,191.11,117a32,32,0,0,0-42.36-1.89c-1.48,1.22-2.89,2.54-4.25,3.89q-21.51,21.44-43,42.89c-12.84,12.87-13.66,31.59-2,44.72,12.32,13.93,33.29,14.32,47.11.83,4.85-4.73,9.57-9.6,14.44-14.31a3.22,3.22,0,0,1,2.67-.77,81,81,0,0,0,38,4,10.94,10.94,0,0,1,1.43,0,5.75,5.75,0,0,1-.62.92c-11.79,11.75-23.18,23.92-35.47,35.12-18.42,16.8-40.24,21.54-63.86,13.79S65,221.69,60.26,197.34c-4.2-21.46,1.45-40.68,16.7-56.47,15.74-16.3,31.72-32.4,48.13-48,28.9-27.5,76.84-21.22,97.83,12.38,1.08,1.73,1.07,2.71-.46,4.18-6.44,6.2-12.72,12.58-19.11,18.85A35.51,35.51,0,0,1,199.6,131.07Z"/><path class="cls-4" d="M371.77,61.42h49.65q17.25,0,30.6,6.45a48.58,48.58,0,0,1,20.7,18.3q7.35,11.85,7.35,27.75t-7.35,27.75A48.58,48.58,0,0,1,452,160q-13.35,6.45-30.6,6.45H371.77Zm48.45,81.3q13.5,0,21.67-7.65t8.18-21.15q0-13.5-8.18-21.15t-21.67-7.65H401.47v57.6Z"/><path class="cls-4" d="M579.52,146h-44.4l-8.25,20.4h-30.3l46.35-105h29.25l46.5,105h-30.9Zm-8.7-21.9-13.5-33.6-13.5,33.6Z"/><path class="cls-4" d="M654.22,165.37q-12-3.15-19.5-8.4l9.75-21.9a62.94,62.94,0,0,0,16.35,7.5,62.24,62.24,0,0,0,18.3,2.85q17.1,0,17.1-8.55,0-4.5-4.88-6.68t-15.67-4.57a149.54,149.54,0,0,1-19.8-5.48,33.25,33.25,0,0,1-13.65-9.37q-5.72-6.45-5.7-17.4A30.06,30.06,0,0,1,641.77,76q5.25-7.73,15.67-12.22T683,59.32a90.21,90.21,0,0,1,20.4,2.32,62.59,62.59,0,0,1,17.7,6.83l-9.15,22q-15-8.1-29.1-8.1c-5.91,0-10.2.87-12.9,2.62s-4.05,4-4.05,6.83,1.59,4.9,4.8,6.3,8.34,2.85,15.45,4.35A144.71,144.71,0,0,1,706,108a34.32,34.32,0,0,1,13.65,9.3q5.77,6.38,5.78,17.33a29.53,29.53,0,0,1-5.25,17.1q-5.26,7.65-15.75,12.22T679,168.52A97.07,97.07,0,0,1,654.22,165.37Z"/><path class="cls-4" d="M824.46,146h-44.4l-8.25,20.4h-30.3l46.35-105h29.25l46.5,105h-30.9Zm-8.7-21.9-13.5-33.6-13.5,33.6Z"/><path class="cls-4" d="M957.81,165.37q-12-3.15-19.5-8.4l9.75-21.9a63.09,63.09,0,0,0,16.35,7.5,62.24,62.24,0,0,0,18.3,2.85q17.1,0,17.1-8.55c0-3-1.63-5.23-4.87-6.68s-8.48-3-15.68-4.57a149.54,149.54,0,0,1-19.8-5.48,33.31,33.31,0,0,1-13.65-9.37q-5.7-6.45-5.7-17.4A30.14,30.14,0,0,1,945.36,76q5.25-7.73,15.68-12.22t25.57-4.5a90.21,90.21,0,0,1,20.4,2.32,62.48,62.48,0,0,1,17.7,6.83l-9.15,22q-15-8.1-29.1-8.1-8.85,0-12.9,2.62t-4,6.83q0,4.2,4.8,6.3t15.45,4.35a144.9,144.9,0,0,1,19.88,5.47,34.32,34.32,0,0,1,13.65,9.3q5.78,6.38,5.77,17.33a29.53,29.53,0,0,1-5.25,17.1q-5.25,7.65-15.75,12.22t-25.5,4.58A97.07,97.07,0,0,1,957.81,165.37Z"/><path class="cls-4" d="M1157.61,61.42v105h-29.7V125.47h-40.5v40.95h-29.7v-105h29.7v39.45h40.5V61.42Z"/><path class="cls-4" d="M1216.64,161.47a52.58,52.58,0,0,1-28.43-47.55,52.58,52.58,0,0,1,28.43-47.55,67,67,0,0,1,59.85,0,52.59,52.59,0,0,1,28.42,47.55,52.59,52.59,0,0,1-28.42,47.55,67,67,0,0,1-59.85,0Zm44.32-21.3a27,27,0,0,0,10.2-10.58,32,32,0,0,0,3.75-15.67,32,32,0,0,0-3.75-15.68A27,27,0,0,0,1261,87.67a29.52,29.52,0,0,0-28.8,0A27,27,0,0,0,1222,98.24a32,32,0,0,0-3.75,15.68,32,32,0,0,0,3.75,15.67,27,27,0,0,0,10.2,10.58,29.52,29.52,0,0,0,28.8,0Z"/><path class="cls-4" d="M1381.41,138.52h-16.2v27.9h-29.7v-105h48q14.25,0,24.75,4.72a35.57,35.57,0,0,1,21.9,34.13,36.56,36.56,0,0,1-5.33,19.87,36,36,0,0,1-15.22,13.28l22.65,33h-31.8Zm14.1-49.65q-4.65-4.05-13.8-4.05h-16.5v30.75h16.5q9.15,0,13.8-4t4.65-11.32Q1400.16,92.92,1395.51,88.87Z"/><path class="cls-4" d="M1482.36,85h-32.25V61.42h94.05V85h-32.1v81.45h-29.7Z"/><path class="cls-4" d="M1570.26,61.42H1600v81.45h50.1v23.55h-79.8Z"/><path class="cls-4" d="M1676.75,61.42h29.7v105h-29.7Z"/><path class="cls-4" d="M1842.5,61.42v105h-24.45l-46.35-55.95v55.95h-29.1v-105h24.45l46.35,56V61.42Z"/><path class="cls-4" d="M1919,128.32l-11.1,11.85v26.25h-29.4v-105h29.4v43.65l40.65-43.65h32.7l-42.9,46.5,45.15,58.5H1949Z"/><path class="cls-4" d="M366.18,201.7h10.08q7.1,0,10.28,2.13t3.17,6.71a7.77,7.77,0,0,1-1.77,5.24,8.56,8.56,0,0,1-5.16,2.67v.24q8.13,1.4,8.13,8.55a9.17,9.17,0,0,1-3.24,7.47c-2.15,1.79-5.17,2.69-9,2.69H366.18ZM370.33,217h6.83q4.39,0,6.32-1.37t1.93-4.66a4.7,4.7,0,0,0-2.14-4.33q-2.16-1.34-6.84-1.33h-6.1Zm0,3.52v13.36h7.44q4.32,0,6.51-1.68a6.18,6.18,0,0,0,2.18-5.23,5.56,5.56,0,0,0-2.23-4.89q-2.24-1.56-6.8-1.56Z"/><path class="cls-4" d="M404.27,210.64V228a7,7,0,0,0,1.49,4.88,6.08,6.08,0,0,0,4.66,1.61c2.8,0,4.85-.76,6.14-2.3s1.94-4,1.94-7.49V210.64h4.06V237.4h-3.35l-.58-3.59h-.22a8.15,8.15,0,0,1-3.46,3,11.59,11.59,0,0,1-5,1q-4.87,0-7.31-2.32c-1.62-1.54-2.43-4-2.43-7.42v-17.5Z"/><path class="cls-4" d="M450.11,237.4l-.81-3.81h-.2a11.19,11.19,0,0,1-4,3.4,12,12,0,0,1-5,.89,8.9,8.9,0,0,1-6.23-2,7.45,7.45,0,0,1-2.26-5.83q0-8.12,13-8.5l4.54-.14v-1.67A6.83,6.83,0,0,0,447.8,215a5.57,5.57,0,0,0-4.33-1.5,17.74,17.74,0,0,0-7.57,2.05l-1.25-3.1a19.38,19.38,0,0,1,4.34-1.68,18.59,18.59,0,0,1,4.72-.61q4.79,0,7.09,2.12t2.31,6.81V237.4ZM441,234.54a8.23,8.23,0,0,0,5.95-2.08,7.67,7.67,0,0,0,2.16-5.81v-2.41l-4.06.17q-4.83.17-7,1.5a4.54,4.54,0,0,0-2.13,4.14,4.16,4.16,0,0,0,1.33,3.34A5.49,5.49,0,0,0,441,234.54Z"/><path class="cls-4" d="M472.6,234.54a12.8,12.8,0,0,0,2.08-.16,15.51,15.51,0,0,0,1.58-.33v3.1a7.44,7.44,0,0,1-1.94.53,15.45,15.45,0,0,1-2.3.2q-7.77,0-7.77-8.18V213.79h-3.83v-2l3.83-1.68,1.71-5.71h2.34v6.2h7.77v3.15H468.3v15.74a5.42,5.42,0,0,0,1.15,3.71A4,4,0,0,0,472.6,234.54Z"/><path class="cls-4" d="M527.16,201.7v23.1q0,6.1-3.69,9.59t-10.13,3.49q-6.44,0-10-3.51t-3.53-9.67v-23H504V225c0,3,.82,5.27,2.44,6.86s4,2.4,7.18,2.4,5.33-.81,7-2.41,2.44-3.9,2.44-6.9V201.7Z"/><path class="cls-4" d="M543.26,222.55V237.4h-4.15V201.7h9.79q6.57,0,9.7,2.52c2.1,1.67,3.14,4.2,3.14,7.56,0,4.73-2.39,7.91-7.18,9.58l9.7,16h-4.91l-8.64-14.85Zm0-3.56H549c2.93,0,5.08-.59,6.44-1.75a6.48,6.48,0,0,0,2.05-5.24c0-2.35-.69-4.06-2.08-5.1s-3.63-1.56-6.7-1.56h-5.4Z"/><path class="cls-4" d="M572.52,237.4V201.7h4.15v31.94h15.75v3.76Z"/><path class="cls-4" d="M627.44,237.4h-4.15v-32H612V201.7h26.76v3.69H627.44Z"/><path class="cls-4" d="M662.46,237.4l-.8-3.81h-.2a11.19,11.19,0,0,1-4,3.4,12.08,12.08,0,0,1-5,.89,8.9,8.9,0,0,1-6.23-2A7.45,7.45,0,0,1,644,230q0-8.12,13-8.5l4.54-.14v-1.67a6.83,6.83,0,0,0-1.35-4.65,5.59,5.59,0,0,0-4.34-1.5,17.7,17.7,0,0,0-7.56,2.05l-1.25-3.1a19.49,19.49,0,0,1,4.33-1.68,18.66,18.66,0,0,1,4.73-.61q4.78,0,7.09,2.12t2.31,6.81V237.4Zm-9.15-2.86a8.19,8.19,0,0,0,5.94-2.08,7.67,7.67,0,0,0,2.16-5.81v-2.41l-4,.17q-4.83.17-7,1.5a4.54,4.54,0,0,0-2.13,4.14,4.16,4.16,0,0,0,1.33,3.34A5.47,5.47,0,0,0,653.31,234.54Z"/><path class="cls-4" d="M694.63,237.4V220.09a7,7,0,0,0-1.49-4.89,6.1,6.1,0,0,0-4.67-1.61c-2.79,0-4.85.76-6.15,2.27s-2,4-2,7.5v14h-4V210.64h3.29l.66,3.66h.2a8.3,8.3,0,0,1,3.49-3.07,11.38,11.38,0,0,1,5-1.08c3.23,0,5.65.78,7.28,2.33s2.44,4,2.44,7.46V237.4Z"/><path class="cls-4" d="M722,237.88a11.63,11.63,0,0,1-4.78-1,8.86,8.86,0,0,1-3.62-3h-.29a37.13,37.13,0,0,1,.29,4.45v11h-4V210.64h3.29l.56,3.66h.2a9.3,9.3,0,0,1,3.64-3.17,11.06,11.06,0,0,1,4.76-1,9.88,9.88,0,0,1,8.21,3.64q2.9,3.63,2.89,10.2t-2.94,10.24A9.88,9.88,0,0,1,722,237.88Zm-.59-24.29q-4.1,0-5.93,2.27c-1.22,1.52-1.85,3.92-1.88,7.23v.9c0,3.76.62,6.45,1.88,8.07s3.26,2.43,6,2.43a6.27,6.27,0,0,0,5.43-2.81,13.31,13.31,0,0,0,2-7.74q0-5-2-7.68A6.46,6.46,0,0,0,721.37,213.59Z"/><path class="cls-4" d="M759.1,237.4l-.81-3.81h-.19a11.36,11.36,0,0,1-4,3.4,12.11,12.11,0,0,1-5,.89,8.94,8.94,0,0,1-6.24-2,7.48,7.48,0,0,1-2.26-5.83q0-8.12,13-8.5l4.54-.14v-1.67a6.78,6.78,0,0,0-1.36-4.65,5.57,5.57,0,0,0-4.33-1.5,17.78,17.78,0,0,0-7.57,2.05l-1.24-3.1a19.3,19.3,0,0,1,4.33-1.68,18.59,18.59,0,0,1,4.72-.61q4.78,0,7.1,2.12t2.3,6.81V237.4Zm-9.16-2.86a8.2,8.2,0,0,0,5.95-2.08,7.67,7.67,0,0,0,2.16-5.81v-2.41l-4,.17q-4.85.17-7,1.5a4.53,4.53,0,0,0-2.14,4.14,4.16,4.16,0,0,0,1.33,3.34A5.5,5.5,0,0,0,749.94,234.54Z"/><path class="cls-4" d="M793.2,222.55V237.4h-4.15V201.7h9.79q6.57,0,9.71,2.52c2.09,1.67,3.13,4.2,3.13,7.56,0,4.73-2.39,7.91-7.17,9.58l9.69,16h-4.91l-8.64-14.85Zm0-3.56h5.69c2.93,0,5.08-.59,6.45-1.75a6.52,6.52,0,0,0,2-5.24c0-2.35-.7-4.06-2.09-5.1s-3.63-1.56-6.7-1.56h-5.4Z"/><path class="cls-4" d="M821.51,203.39a2.67,2.67,0,0,1,.68-2,2.41,2.41,0,0,1,1.71-.65,2.37,2.37,0,0,1,1.68.66,3.26,3.26,0,0,1,0,4.06,2.45,2.45,0,0,1-3.39,0A2.69,2.69,0,0,1,821.51,203.39Zm4.39,34h-4V210.64h4Z"/><path class="cls-4" d="M849.45,210.2a10,10,0,0,1,8.19,3.6q2.91,3.6,2.92,10.19t-2.95,10.24a9.88,9.88,0,0,1-8.16,3.65,11.63,11.63,0,0,1-4.78-1,8.86,8.86,0,0,1-3.62-3h-.29l-.86,3.45H837v-38h4v9.23c0,2.06-.07,3.92-.2,5.56h.2Q843.89,210.2,849.45,210.2Zm-.59,3.39c-2.77,0-4.76.8-6,2.38s-1.83,4.26-1.83,8,.62,6.45,1.88,8.07,3.26,2.43,6,2.43a6.25,6.25,0,0,0,5.56-2.72c1.23-1.82,1.84-4.42,1.84-7.83s-.61-6.08-1.84-7.79A6.49,6.49,0,0,0,848.86,213.59Z"/><path class="cls-4" d="M881.44,237.88q-5.94,0-9.36-3.61t-3.43-10q0-6.48,3.18-10.28a10.6,10.6,0,0,1,8.56-3.81,10.09,10.09,0,0,1,8,3.31,12.68,12.68,0,0,1,2.93,8.73v2.56H872.85q.12,4.71,2.38,7.15a8.21,8.21,0,0,0,6.36,2.44,21.62,21.62,0,0,0,8.54-1.8v3.61a21.52,21.52,0,0,1-4.06,1.33A22.79,22.79,0,0,1,881.44,237.88Zm-1.1-24.34a6.62,6.62,0,0,0-5.14,2.1,9.69,9.69,0,0,0-2.26,5.81h14a8.91,8.91,0,0,0-1.71-5.87A6,6,0,0,0,880.34,213.54Z"/><path class="cls-4" d="M909.33,234.54a12.59,12.59,0,0,0,2.07-.16,15.21,15.21,0,0,0,1.59-.33v3.1a7.44,7.44,0,0,1-1.94.53,15.46,15.46,0,0,1-2.31.2q-7.75,0-7.76-8.18V213.79h-3.83v-2l3.83-1.68,1.71-5.71H905v6.2h7.77v3.15H905v15.74a5.37,5.37,0,0,0,1.15,3.71A4,4,0,0,0,909.33,234.54Z"/><path class="cls-4" d="M964.82,237.4h-4.74l-19.51-30h-.19c.26,3.51.39,6.74.39,9.67V237.4h-3.83V201.7h4.68l19.46,29.84h.2c0-.44-.11-1.86-.22-4.24s-.16-4.09-.12-5.11V201.7h3.88Z"/><path class="cls-4" d="M998.42,210.64v2.56l-4.95.59a8.63,8.63,0,0,1,1.75,5.34,7.92,7.92,0,0,1-2.68,6.28,10.85,10.85,0,0,1-7.38,2.34,12.3,12.3,0,0,1-2.24-.19q-2.59,1.37-2.59,3.44a1.75,1.75,0,0,0,.9,1.62,6.62,6.62,0,0,0,3.1.53h4.74c2.9,0,5.12.61,6.68,1.83a6.36,6.36,0,0,1,2.33,5.32,7.6,7.6,0,0,1-3.56,6.77q-3.57,2.34-10.41,2.34-5.24,0-8.09-2a6.29,6.29,0,0,1-2.84-5.51,6.22,6.22,0,0,1,1.56-4.23,7.93,7.93,0,0,1,4.39-2.41,4.31,4.31,0,0,1-1.72-1.44,3.87,3.87,0,0,1-.69-2.28,4.31,4.31,0,0,1,.78-2.56A8.19,8.19,0,0,1,980,226.9a7.23,7.23,0,0,1-3.38-2.91,8.55,8.55,0,0,1-1.3-4.69,8.67,8.67,0,0,1,2.63-6.77q2.64-2.39,7.47-2.38a13.44,13.44,0,0,1,3.79.49Zm-21.34,31.25a3.62,3.62,0,0,0,1.83,3.29,10.11,10.11,0,0,0,5.25,1.13q5.1,0,7.56-1.53a4.67,4.67,0,0,0,2.45-4.14,3.25,3.25,0,0,0-1.34-3c-.9-.56-2.58-.85-5.05-.85h-4.86a6.41,6.41,0,0,0-4.3,1.32A4.73,4.73,0,0,0,977.08,241.89Zm2.2-22.68a5.43,5.43,0,0,0,1.59,4.24,6.3,6.3,0,0,0,4.42,1.45q5.93,0,5.93-5.77,0-6-6-6a6,6,0,0,0-4.39,1.54A6.19,6.19,0,0,0,979.28,219.21Z"/><path class="cls-4" d="M1022.87,237.4l-.81-3.81h-.19a11.36,11.36,0,0,1-4,3.4,12.11,12.11,0,0,1-5,.89,8.94,8.94,0,0,1-6.24-2,7.45,7.45,0,0,1-2.26-5.83q0-8.12,13-8.5l4.54-.14v-1.67a6.78,6.78,0,0,0-1.36-4.65,5.57,5.57,0,0,0-4.33-1.5,17.78,17.78,0,0,0-7.57,2.05l-1.24-3.1a19.3,19.3,0,0,1,4.33-1.68,18.59,18.59,0,0,1,4.72-.61q4.78,0,7.1,2.12t2.3,6.81V237.4Zm-9.16-2.86a8.2,8.2,0,0,0,5.95-2.08,7.67,7.67,0,0,0,2.16-5.81v-2.41l-4.05.17q-4.85.17-7,1.5a4.53,4.53,0,0,0-2.14,4.14,4.16,4.16,0,0,0,1.33,3.34A5.5,5.5,0,0,0,1013.71,234.54Z"/><path class="cls-4" d="M1049.17,237.88a11.61,11.61,0,0,1-4.77-1,9,9,0,0,1-3.63-3h-.29a35.16,35.16,0,0,1,.29,4.45v11h-4V210.64h3.3l.56,3.66h.19a9.44,9.44,0,0,1,3.64-3.17,11.09,11.09,0,0,1,4.76-1,9.89,9.89,0,0,1,8.22,3.64q2.89,3.63,2.89,10.2t-2.94,10.24A9.88,9.88,0,0,1,1049.17,237.88Zm-.58-24.29c-2.74,0-4.71.76-5.94,2.27s-1.84,3.92-1.88,7.23v.9q0,5.64,1.88,8.07t6,2.43a6.28,6.28,0,0,0,5.44-2.81q2-2.81,2-7.74t-2-7.68A6.47,6.47,0,0,0,1048.59,213.59Z"/><path class="cls-4" d="M1086.32,237.4l-.81-3.81h-.19a11.29,11.29,0,0,1-4,3.4,12,12,0,0,1-5,.89,8.91,8.91,0,0,1-6.24-2,7.45,7.45,0,0,1-2.26-5.83q0-8.12,13-8.5l4.54-.14v-1.67A6.83,6.83,0,0,0,1084,215a5.57,5.57,0,0,0-4.33-1.5,17.74,17.74,0,0,0-7.57,2.05l-1.25-3.1a19.57,19.57,0,0,1,4.34-1.68,18.59,18.59,0,0,1,4.72-.61q4.78,0,7.09,2.12t2.31,6.81V237.4Zm-9.16-2.86a8.22,8.22,0,0,0,5.95-2.08,7.67,7.67,0,0,0,2.16-5.81v-2.41l-4.06.17q-4.83.17-7,1.5a4.54,4.54,0,0,0-2.13,4.14,4.16,4.16,0,0,0,1.33,3.34A5.5,5.5,0,0,0,1077.16,234.54Z"/><path class="cls-4" d="M1104.22,237.4h-4v-38h4Z"/><path class="cls-4" d="M1115,203.39a2.68,2.68,0,0,1,.69-2,2.52,2.52,0,0,1,3.39,0,3.26,3.26,0,0,1,0,4.06,2.35,2.35,0,0,1-1.68.68,2.32,2.32,0,0,1-1.71-.68A2.7,2.7,0,0,1,1115,203.39Zm4.4,34h-4V210.64h4Z"/><path class="cls-4" d="M1148.77,237.4V220.09a7,7,0,0,0-1.49-4.89,6.06,6.06,0,0,0-4.66-1.61q-4.2,0-6.15,2.27c-1.31,1.52-2,4-2,7.5v14h-4V210.64h3.3l.66,3.66h.19a8.36,8.36,0,0,1,3.49-3.07,11.43,11.43,0,0,1,5-1.08c3.22,0,5.65.78,7.27,2.33s2.45,4,2.45,7.46V237.4Z"/><path class="cls-4" d="M1206.7,201.7v23.1q0,6.1-3.68,9.59t-10.14,3.49q-6.44,0-10-3.51t-3.53-9.67v-23h4.15V225q0,4.47,2.45,6.86c1.62,1.6,4,2.4,7.17,2.4s5.33-.81,7-2.41,2.44-3.9,2.44-6.9V201.7Z"/><path class="cls-4" d="M1222.8,222.55V237.4h-4.15V201.7h9.79q6.57,0,9.71,2.52c2.09,1.67,3.13,4.2,3.13,7.56,0,4.73-2.39,7.91-7.18,9.58l9.7,16h-4.91l-8.64-14.85Zm0-3.56h5.69c2.93,0,5.08-.59,6.44-1.75A6.49,6.49,0,0,0,1237,212c0-2.35-.7-4.06-2.09-5.1s-3.63-1.56-6.7-1.56h-5.4Z"/><path class="cls-4" d="M1252.06,237.4V201.7h4.15v31.94H1272v3.76Z"/><path class="cls-4" d="M1277.66,225.85v-3.71h12v3.71Z"/><path class="cls-4" d="M1316.8,237.4V220.09a7,7,0,0,0-1.49-4.89,6.08,6.08,0,0,0-4.66-1.61q-4.2,0-6.15,2.27c-1.31,1.52-2,4-2,7.5v14h-4V210.64h3.3l.65,3.66h.2a8.3,8.3,0,0,1,3.49-3.07,11.43,11.43,0,0,1,5-1.08q4.83,0,7.27,2.33t2.44,7.46V237.4Z"/><path class="cls-4" d="M1327.43,210.64h4.35l5.86,15.26a58.64,58.64,0,0,1,2.39,7.54h.19c.21-.83.66-2.25,1.33-4.26s2.89-8.19,6.63-18.54h4.35L1341,241.11a15.18,15.18,0,0,1-4,6.4,8.45,8.45,0,0,1-5.61,1.9,16.18,16.18,0,0,1-3.66-.42v-3.25a13.88,13.88,0,0,0,3,.3q4.17,0,6-4.69l1.49-3.81Z"/><path class="cls-4" d="M1375.83,237.4l-.81-3.81h-.19a11.36,11.36,0,0,1-4,3.4,12.11,12.11,0,0,1-5,.89,8.93,8.93,0,0,1-6.24-2,7.45,7.45,0,0,1-2.26-5.83q0-8.12,13-8.5l4.54-.14v-1.67a6.83,6.83,0,0,0-1.36-4.65,5.57,5.57,0,0,0-4.33-1.5,17.78,17.78,0,0,0-7.57,2.05l-1.25-3.1a19.57,19.57,0,0,1,4.34-1.68,18.59,18.59,0,0,1,4.72-.61c3.19,0,5.56.71,7.09,2.12s2.31,3.69,2.31,6.81V237.4Zm-9.16-2.86a8.2,8.2,0,0,0,5.95-2.08,7.67,7.67,0,0,0,2.16-5.81v-2.41l-4,.17q-4.85.17-7,1.5a4.53,4.53,0,0,0-2.14,4.14,4.16,4.16,0,0,0,1.33,3.34A5.5,5.5,0,0,0,1366.67,234.54Z"/></g></g></svg>