<svg xmlns="http://www.w3.org/2000/svg" viewBox="0 0 1416.96 308.72"><defs><style>.cls-1{fill:#fff;}</style></defs><g id="Layer_2" data-name="Layer 2"><g id="Layer_1-2" data-name="Layer 1"><path class="cls-1" d="M248.14,81.72c4.25-4.4,5.14-8.83,3-14.82A15.85,15.85,0,0,0,247.56,61c-2-2-4.84-3.29-8.62-3.85-3.56-.54-7.92-.37-13.27,4.92-2.16,2.13-4.37,4.36-6.5,6.52L215,72.81A78.84,78.84,0,0,1,236,94.1Q242.12,87.94,248.14,81.72Z"/><path class="cls-1" d="M134.1,174.69c-1.37-1.37-2.73-2.82-4-4.31a64.05,64.05,0,0,1-5.17-6.92l-.36-.53-11,11c-6.42,6.44-7,15-1.34,21.39.22.24.45.49.68.72,5.9,5.9,15.26,5.56,21.77-.8,2.15-2.1,4.35-4.3,6.47-6.43l4.44-4.42A85.84,85.84,0,0,1,134.1,174.69Z"/><path class="cls-1" d="M304.34,117.75a92,92,0,0,1-7.71,9.54L210.1,213.82,204,220.07c-8.13,8.27-16.53,16.82-25.41,24.92-11.42,10.41-24.16,17.2-37.85,20.16s-28.14,2-42.8-2.77a81.69,81.69,0,0,1-32.71-19.62c-11.05-11-18.33-25.22-21.64-42.14-5.3-27,2-51.77,21.16-71.59C79.07,114.15,92.19,101,104.53,89L165.91,27.6c5-5,10.19-10.07,15.49-15a93.44,93.44,0,0,1,10.08-8.13A154.36,154.36,0,1,0,304.34,117.75Z"/><path class="cls-1" d="M160.89,126.08a34.68,34.68,0,0,0,8.63,14.27c11.89,11.6,32,11.88,43.85.23,15.8-15.54,31.6-31.09,47-47,8.88-9.17,11.11-20.46,6.75-32.48s-13.06-18.92-25.65-20.82c-10.89-1.63-20.08,2-27.79,9.65-4.76,4.7-9.4,9.51-14.17,14.2a3,3,0,0,1-2.45.8,82.24,82.24,0,0,0-39-4.09,4.19,4.19,0,0,1-.69-.08,5.48,5.48,0,0,1,.66-1C169.65,48.19,180.93,36.27,193,25.15c18.47-17.06,40.36-22,64.19-14.21,23.67,7.72,38.34,24.53,43.06,49,4.29,22.19-2.07,41.64-17.95,57.74q-23,23.31-46.41,46.19a60.76,60.76,0,0,1-39.77,17.42c-21.33,1.28-39.12-6.18-53.24-22.18-2.15-2.42-3.8-5.28-5.71-7.91a1.8,1.8,0,0,1,.22-2.78c6.62-6.51,13.15-13.11,19.76-19.62A30.49,30.49,0,0,1,160.89,126.08Z"/><path class="cls-1" d="M199.6,131.07A35,35,0,0,0,191.11,117a32,32,0,0,0-42.36-1.89c-1.48,1.22-2.89,2.54-4.25,3.89q-21.51,21.44-43,42.89c-12.84,12.87-13.66,31.59-2,44.72,12.32,13.93,33.29,14.32,47.11.83,4.85-4.73,9.57-9.6,14.44-14.31a3.22,3.22,0,0,1,2.67-.77,81,81,0,0,0,38,4,10.94,10.94,0,0,1,1.43,0,5.75,5.75,0,0,1-.62.92c-11.79,11.75-23.18,23.92-35.47,35.12-18.42,16.8-40.24,21.54-63.86,13.79S65,221.69,60.26,197.34c-4.2-21.46,1.45-40.68,16.7-56.47,15.74-16.3,31.72-32.4,48.13-48,28.9-27.5,76.84-21.22,97.83,12.38,1.08,1.73,1.07,2.71-.46,4.18-6.44,6.2-12.72,12.58-19.11,18.85A35.51,35.51,0,0,1,199.6,131.07Z"/><path class="cls-1" d="M371.77,27.42h49.65q17.25,0,30.6,6.45a48.58,48.58,0,0,1,20.7,18.3q7.35,11.85,7.35,27.75t-7.35,27.75A48.58,48.58,0,0,1,452,126q-13.35,6.45-30.6,6.45H371.77Zm48.45,81.3q13.5,0,21.67-7.65t8.18-21.15q0-13.5-8.18-21.15t-21.67-7.65H401.47v57.6Z"/><path class="cls-1" d="M579.52,112h-44.4l-8.25,20.4h-30.3l46.35-105h29.25l46.5,105h-30.9Zm-8.7-21.9-13.5-33.6-13.5,33.6Z"/><path class="cls-1" d="M654.22,131.37q-12-3.15-19.5-8.4l9.75-21.9a62.94,62.94,0,0,0,16.35,7.5,62.24,62.24,0,0,0,18.3,2.85q17.1,0,17.1-8.55,0-4.5-4.88-6.68t-15.67-4.57a149.54,149.54,0,0,1-19.8-5.48,33.25,33.25,0,0,1-13.65-9.37q-5.72-6.45-5.7-17.4A30.06,30.06,0,0,1,641.77,42q5.25-7.73,15.67-12.22T683,25.32a90.21,90.21,0,0,1,20.4,2.32,62.59,62.59,0,0,1,17.7,6.83L712,56.52q-15-8.1-29.1-8.1c-5.91,0-10.2.88-12.9,2.62s-4.05,4-4.05,6.83,1.59,4.9,4.8,6.3,8.34,2.85,15.45,4.35A144.71,144.71,0,0,1,706,74a34.32,34.32,0,0,1,13.65,9.3q5.77,6.39,5.78,17.33a29.53,29.53,0,0,1-5.25,17.1q-5.26,7.65-15.75,12.22T679,134.52A97.07,97.07,0,0,1,654.22,131.37Z"/><path class="cls-1" d="M824.46,112h-44.4l-8.25,20.4h-30.3l46.35-105h29.25l46.5,105h-30.9Zm-8.7-21.9-13.5-33.6-13.5,33.6Z"/><path class="cls-1" d="M391.27,280.26q-12-3.15-19.5-8.4l9.75-21.9a63.09,63.09,0,0,0,16.35,7.5,62.24,62.24,0,0,0,18.3,2.85q17.1,0,17.1-8.55,0-4.5-4.88-6.68t-15.67-4.57a149.54,149.54,0,0,1-19.8-5.48,33.31,33.31,0,0,1-13.65-9.37q-5.7-6.45-5.7-17.4a30.14,30.14,0,0,1,5.25-17.33q5.25-7.73,15.67-12.22t25.58-4.5a90.21,90.21,0,0,1,20.4,2.32,62.48,62.48,0,0,1,17.7,6.83l-9.15,22q-15-8.1-29.1-8.1-8.85,0-12.9,2.62t-4,6.83q0,4.2,4.8,6.3t15.45,4.35a144.71,144.71,0,0,1,19.87,5.47,34.32,34.32,0,0,1,13.65,9.3q5.77,6.38,5.78,17.33a29.53,29.53,0,0,1-5.25,17.1q-5.25,7.65-15.75,12.22T416,283.41A97.07,97.07,0,0,1,391.27,280.26Z"/><path class="cls-1" d="M591.07,176.31v105h-29.7V240.36h-40.5v40.95h-29.7v-105h29.7v39.45h40.5V176.31Z"/><path class="cls-1" d="M650.09,276.36a53.69,53.69,0,0,1,0-95.1,67,67,0,0,1,59.85,0,53.69,53.69,0,0,1,0,95.1,67,67,0,0,1-59.85,0Zm44.33-21.3a27,27,0,0,0,10.2-10.58,34.64,34.64,0,0,0,0-31.35,27,27,0,0,0-10.2-10.57,29.52,29.52,0,0,0-28.8,0,27,27,0,0,0-10.2,10.57,34.64,34.64,0,0,0,0,31.35,27,27,0,0,0,10.2,10.58,29.52,29.52,0,0,0,28.8,0Z"/><path class="cls-1" d="M814.87,253.41h-16.2v27.9H769v-105h48q14.24,0,24.75,4.72a38.18,38.18,0,0,1,16.57,54,36,36,0,0,1-15.23,13.28l22.66,33h-31.8ZM829,203.76q-4.66-4-13.8-4h-16.5v30.75h16.5q9.14,0,13.8-4c3.09-2.65,4.65-6.42,4.65-11.32S832.06,206.46,829,203.76Z"/><path class="cls-1" d="M915.81,199.86H883.56V176.31h94.06v23.55h-32.1v81.45H915.81Z"/><path class="cls-1" d="M1003.71,176.31h29.7v81.45h50.1v23.55h-79.8Z"/><path class="cls-1" d="M1110.21,176.31h29.7v105h-29.7Z"/><path class="cls-1" d="M1276,176.31v105h-24.45l-46.35-55.95v55.95h-29.1v-105h24.45l46.35,55.95V176.31Z"/><path class="cls-1" d="M1352.46,243.21l-11.1,11.85v26.25H1312v-105h29.4V220L1382,176.31h32.7l-42.9,46.5,45.15,58.5h-34.5Z"/></g></g></svg>